<svg width="221" height="53" viewBox="0 0 221 53" fill="none" xmlns="http://www.w3.org/2000/svg">
<path d="M0.956372 0H10.8581L28.5798 30.7073L22.6726 40.943L0 1.67415L0.956372 0Z" fill="#FF6413"/>
<path d="M29.5842 52.9246L24.6572 44.363L42.3789 13.6558H54.1934L31.5208 52.9246H29.5842Z" fill="#FF6413"/>
<path d="M61.1042 1.67415L56.1772 10.2358H20.71L14.8027 0H60.1479L61.1042 1.67415Z" fill="#FF6413"/>
<path d="M111.02 32.7123H113.986V30.2638C113.986 28.359 115.456 27.6817 117.847 27.6817H119.233V25.0996H117.847C115.809 25.0996 114.829 25.5066 114.037 26.5687H113.955V24.5558C113.955 22.3807 115.478 20.9657 117.872 20.9657C120.267 20.9657 121.736 22.3807 121.736 24.5558V32.7155H124.728V24.5558C124.728 20.8575 122.035 18.3804 117.875 18.3804C113.716 18.3804 111.023 20.8544 111.023 24.5558V32.7155L111.02 32.7123Z" fill="white"/>
<path d="M102.379 32.9856C106.106 32.9856 108.256 31.3543 108.256 28.6609C108.256 25.6686 106.106 24.934 103.06 24.3362C100.341 23.7924 99.4952 23.3567 99.4952 22.4059C99.4952 21.4011 100.611 20.9082 101.998 20.9082C103.686 20.9082 105.016 21.6428 105.098 23.0546H108.253C108.116 20.145 105.505 18.377 102.243 18.377C99.2503 18.377 96.5315 19.792 96.5315 22.6222C96.5315 25.6399 99.2503 26.4317 102.408 27.0296C104.612 27.4366 105.292 27.7641 105.292 28.7149C105.292 29.9392 103.988 30.4544 102.437 30.4544C100.452 30.4544 99.174 29.5831 99.174 28.3079H96.0195C96.1563 31.2175 98.8497 32.9856 102.386 32.9856" fill="white"/>
<path d="M87.9903 32.9856C91.7171 32.9856 93.8636 31.3543 93.8636 28.6609C93.8636 25.6686 91.7171 24.934 88.6676 24.3362C85.9487 23.7924 85.1029 23.3567 85.1029 22.4059C85.1029 21.4011 86.219 20.9082 87.6055 20.9082C89.294 20.9082 90.6264 21.6428 90.7059 23.0546H93.8604C93.7237 20.145 91.113 18.377 87.8503 18.377C84.858 18.377 82.1392 19.792 82.1392 22.6222C82.1392 25.6399 84.858 26.4317 88.0125 27.0296C90.2162 27.4366 90.8967 27.7641 90.8967 28.7149C90.8967 29.9392 89.5929 30.4544 88.0411 30.4544C86.0569 30.4544 84.7785 29.5831 84.7785 28.3079H81.624C81.7608 31.2175 84.4542 32.9856 87.9903 32.9856Z" fill="white"/>
<path d="M64.5224 32.7119H67.2444L70.6183 22.4566H70.6692L74.0431 32.7119H76.7651L80.0278 18.6216H77.0354L75.0766 27.9515H74.9685L71.9762 18.6216H69.3114L66.319 27.9515H66.2109L64.2521 18.6216H61.2598L64.5224 32.7119Z" fill="white"/>
<path d="M159.186 21.8082V20.1069H156.486V24.0246H163.88V21.8082H159.186Z" fill="white"/>
<path d="M159.186 28.8133V27.1121H156.486V31.0297H163.88V28.8133H159.186Z" fill="white"/>
<path d="M212.625 33.0872C214.562 33.0872 216.33 32.4608 217.287 31.0171H217.37V32.8169H220.26V18.698H217.261V26.4666C217.261 28.8388 215.843 30.4733 213.337 30.4733C211.076 30.4733 209.741 29.1377 209.741 26.4666V18.698H206.742V26.7401C206.742 30.8549 208.978 33.0904 212.628 33.0904" fill="white"/>
<path d="M174.78 24.0815H178.011V30.4827C178.011 31.7706 176.968 32.8136 175.68 32.8136H165.578V18.6343H168.589V30.5241H174.771C174.869 30.5241 174.946 30.4446 174.946 30.3492V26.6286H170.192V24.0847H171.689L174.809 18.6375H178.065L174.78 24.0847V24.0815Z" fill="white"/>
<path d="M201.437 24.0815H204.668V30.4827C204.668 31.7706 203.625 32.8136 202.337 32.8136H192.234V18.6343H195.246V30.5241H201.428C201.526 30.5241 201.602 30.4446 201.602 30.3492V26.6286H196.848V24.0847H198.346L201.466 18.6375H204.722L201.437 24.0847V24.0815Z" fill="white"/>
<path d="M139.998 15V28.8931C139.998 31.0587 138.243 32.8172 136.074 32.8172H131.326C129.161 32.8172 127.402 31.0619 127.402 28.8931V18.6378H130.452V28.7659C130.452 29.4401 130.999 29.987 131.673 29.987H135.673C136.348 29.987 136.894 29.4401 136.894 28.7659V15.0032H139.998V15Z" fill="white"/>
<path d="M187.214 32.8141H190.263V23.6654C190.263 20.5013 188.359 18.4058 184.584 18.4058C181.076 18.4058 179.095 20.6921 179.019 23.4778H181.954C182.069 22.0309 182.946 20.9243 184.584 20.9243C186.451 20.9243 187.214 22.0659 187.214 23.9738V32.8172V32.8141Z" fill="white"/>
<path d="M148.476 32.9983C152.203 32.9983 154.353 31.367 154.353 28.6736C154.353 25.6812 152.203 24.9467 149.157 24.3488C146.438 23.8051 145.592 23.3694 145.592 22.4186C145.592 21.4138 146.708 20.9209 148.094 20.9209C149.783 20.9209 151.112 21.6554 151.195 23.0673H154.349C154.213 20.1577 151.602 18.3896 148.339 18.3896C145.347 18.3896 142.628 19.8047 142.628 22.6349C142.628 25.6526 145.347 26.4444 148.505 27.0423C150.708 27.4493 151.389 27.7768 151.389 28.7276C151.389 29.9519 150.085 30.4671 148.533 30.4671C146.549 30.4671 145.271 29.5957 145.271 28.3206H142.116C142.253 31.2302 144.946 32.9983 148.482 32.9983" fill="white"/>
</svg>
